<svg version="1.0" xmlns="http://www.w3.org/2000/svg" width="120" height="100" viewBox="0 0 881 500"><path d="M167.5 31.4c-7.3 1.9-14.9 5.2-20.8 9-6.3 4-19.5 17.6-23 23.7-8.7 14.9-9.9 36.9-3.2 56.4 3.4 9.8 3.3 15.3-.3 18.8l-2.8 2.7H68.9c-54 0-52.9-.1-57.6 6.9L9 152.3v84.6l5 16.3c2.8 9 6.7 21.5 8.6 27.8 2 6.3 5.4 17.3 7.6 24.5 2.1 7.1 5.6 18.6 7.8 25.5 2.2 6.9 6.2 19.7 8.9 28.5 16.4 52.9 16.5 53.2 23.1 56.6 3.2 1.7 6.2 1.9 35.2 1.9 17.4 0 32.7-.4 34-.9 1.3-.5 4.3-2.5 6.7-4.5 3.6-3 5-3.6 9.1-3.6s5.5.6 9.1 3.6c2.4 2 5.4 4 6.7 4.5 1.3.5 16.5.9 33.7.9 29.1 0 31.8-.2 36.5-2 6.4-2.5 11.6-2.5 17.1 0 4.1 1.8 6.7 2 38.2 2 36.7 0 37.8-.1 42.9-5.6 1.5-1.6 3.6-5.5 4.8-8.6 1.2-3.3 3.4-6.8 5.1-8.3 2.9-2.4 3.6-2.5 16.4-2.5h13.4l3.5 3c1.9 1.7 4 4.8 4.7 6.8 2 6.1 5.7 11 9.9 13.2 3.8 2 5.6 2 79.5 2 62.8 0 76.1-.2 78.9-1.4 2.3-.9 4.6-3.3 7-6.9 5.8-9.2 10.7-10.1 19-3.8 7.4 5.6 14.2 8.8 23.2 10.6 6.9 1.4 17.6 1.5 85.9 1.3l78-.3 9.1-3.3c12-4.2 16.6-4.2 22.4 0 4.3 3.2 4.9 3.3 15 3.6 16.8.5 21.3-3.1 21.8-17.1.4-9.6-1.3-14-6.6-17.2-1.9-1.1-5.1-3.5-7.3-5.3l-3.9-3.4.7-16.6c.7-19.1-.2-26.4-4.7-37.4-3.8-9.4-3.9-13.6-.2-17l2.7-2.6 22.1-.4 22.1-.3 3.6-2.8c2.3-1.7 4-4.2 4.7-6.5.8-2.5 1-25.2.8-72.4l-.3-68.6-2.5-2.7c-5-5.3-6-5.5-33-5.5h-25.2l-3-3c-2.8-2.9-3-3.4-2.5-8.8.3-3.1 1.3-9.1 2.2-13.2 1.3-5.8 1.6-10.3 1.2-20-1-21.7-4.4-29.7-19.3-44.7-8.8-8.8-11.3-10.7-19.5-14.7-16.1-7.8-13.7-7.6-90.4-7.6-66.5 0-68.1.1-71.3 2-5.9 3.6-6.2 5.4-6.2 40.8 0 30.8-.1 32-2.1 34.6-2.7 3.5-8.6 3.6-11.7.3-2.6-2.8-3.2-4.4-13.8-38.7-4.7-15.1-9.6-29.2-11-31.3-1.4-2.1-3.9-4.7-5.7-5.7-3.1-2-4.8-2-56.2-1.5-29.1.2-56.1.4-60 .4-3.8 0-65.7-.2-137.5-.4-103.7-.3-131.5-.1-135.5.9zM426 72v28h-75v117h-62V100h-40.4c-25 0-40.7.4-41.1 1-.3.5 4.6 6.5 11 13.2 6.4 6.8 13.3 14.9 15.5 18.1 18.3 27.1 9.2 64.9-19 79.2-11 5.6-9.4 5.5-104.4 5.5H23v-61l70.2-.2c47.2-.2 70.2-.6 70.5-1.3.2-.6-4.6-6.4-10.5-12.8-15.4-16.7-20-25.2-22.2-40.5-2.9-20.4 9.1-41.8 28.4-50.7 14.5-6.8 5.7-6.4 142.4-6.4L426 44v28zm125.4-23.3c.7 2.7 7.6 24.6 15.1 48.8 7.5 24.2 15.7 50.5 18.2 58.5 2.4 8 7.4 23.9 11 35.5 3.6 11.5 6.8 22 7.1 23.2l.4 2.3h-63l-3.9-12.3-3.9-12.2-29-.3c-22.6-.2-29.4.1-30.1 1-.6.7-2.5 6.4-4.3 12.5l-3.3 11.3h-63.9l.4-2.8c.3-1.5 4.1-14.6 8.6-29.2 4.4-14.6 11-36.4 14.7-48.5 3.7-12.1 8.9-29.4 11.7-38.5 2.7-9.1 7.4-24.5 10.3-34.2 2.9-9.8 5.6-18.2 6-18.8.4-.7 16.5-1 48.5-1h47.9l1.5 4.7zm202.5-1.3c20.8 7.3 34.5 21.9 38.6 41.1 1.9 9 1.9 14.8-.1 24.3-2.9 14-10.3 24.4-23.9 33.3-3.6 2.4-6.5 4.9-6.5 5.7 0 .7 1.6 2 3.5 2.8 2.8 1.1 11.3 1.4 47.5 1.4h44v61h-54.8c-73.7 0-67.9 1.7-97.7-28.1-11-10.9-20.4-19.9-20.8-19.9-.4 0-.7 10.8-.7 24v24h-68V43.9l65.3.3 65.2.3 8.4 2.9zm-658 192.3c1.6 5.4 4.7 15.8 6.8 23 2.1 7.3 4.1 13.3 4.4 13.3.4 0 2.1-5.3 3.8-11.8 1.8-6.4 4.7-16.7 6.4-22.7l3.2-11h71.8l6.3 20c3.5 11 6.6 21.2 7 22.7.3 1.6.9 2.8 1.3 2.8s3.1-8 6-17.8c2.9-9.7 6-20.1 6.9-23l1.6-5.2h32.2c17.8 0 32.5.3 32.7.7.3.5-.6 4.2-1.8 8.3-4.2 13.9-29.3 96.3-35 115-3.1 10.2-7.8 25.5-10.4 34l-4.7 15.5-28.9.3c-15.9.1-29.2-.1-29.6-.5-.5-.5-4.7-13.6-9.4-29.3-11.1-36.9-10.6-35.3-11.5-34.3-.7.7-13.9 42.2-18.8 59l-1.5 5.3H76.4l-5.3-17.3c-2.9-9.4-7.7-24.9-10.6-34.2-2.9-9.4-7.8-25.1-10.9-35-3-9.9-10.3-33.3-16-51.9-5.8-18.6-10.3-34.3-10-34.7.3-.5 16-.9 34.9-.9h34.4l3 9.7zm317-7.9c.6 1.1 10.1 31.1 21.1 66.8 30.7 98.8 32 103.1 32 104.3 0 .8-8.9 1.1-31.3 1.1h-31.3l-4-12.3-3.9-12.2-29.7-.3-29.7-.2-3.9 12.2-3.8 12.3-30.9.3c-17.1.1-31.5 0-32.1-.2-.8-.3 1-7.6 5.3-21.8 7.3-24.4 16.9-55.8 24.1-79.8 2.8-9.1 8.7-28.7 13.2-43.5 4.5-14.9 8.4-27.3 8.7-27.8.2-.4 21.8-.7 47.8-.7 45 0 47.5.1 48.4 1.8zm197.3-.4c9.7 1.9 17.3 4.8 24.4 9.5 16.8 10.9 25.4 26.7 25.4 46.4-.1 19.8-8.1 34-26.4 46.1-3.1 2.1-5.5 4.3-5.3 4.9 1.1 3.4 4.7 3.7 51.5 3.7 41.5 0 46.2-.2 46.2-1.6 0-.9-5-6.8-11.1-13.2-11.9-12.6-17.3-21.6-20.4-33.7-4-15.9.3-32.4 12.1-45.3 6.2-6.8 13.1-11.1 23.9-14.9l8-2.8 59.3-.3 59.2-.3V287h-85.7c-2.7 0-.9 2.7 8.6 12.6 13 13.5 17.8 19.6 21.2 27 7.8 17.1 5.9 39.7-4.8 55.2-6.7 9.8-19.5 18.1-32.2 20.8-9.7 2-144.5 2-154.3 0-13.4-2.9-16.5-5.1-39-27.5-11.5-11.3-20.8-20.1-20.8-19.6 0 .6-.2 11.6-.3 24.5l-.2 23.5-34.2.3-34.3.2V230h60.9c48.3 0 62.4.3 68.3 1.4zm202.1 164.3c-.8.2-1.3 2.2-1.3 4.4 0 2.6-.4 3.8-1.1 3.4-.6-.4-.9-2-.7-3.6.2-1.8-.3-3.3-1.2-3.9-1.1-.7-.6-1 2-.9 1.9 0 2.9.3 2.3.6zm5.1 2.5 1.4 3.3 1.2-3.3c1.7-4.6 3-4 2.9 1.5-.1 4.2-.2 4.4-.9 1.8l-.7-3-1.2 3-1.3 3-1.3-2.5-1.4-2.5-.1 2.4c0 1.9-.3 2.2-1.1 1.4-1.1-1.1-.5-8.3.6-8.3.3 0 1.1 1.5 1.9 3.2z"/><path d="M502.6 99.1c-.3.8-3 9.7-6.1 19.9-3.1 10.2-6.1 19.8-6.6 21.4-.5 1.5-.6 3.2-.3 3.7.6 1.1 27.1 1.2 27.8.1.4-.7-12.9-45-13.9-46-.2-.3-.7.1-.9.9zM684.2 103.7l.3 10.8 20.3.3 20.4.2 3.4-3.4c5.6-5.6 4.4-13.5-2.6-17.1-2.3-1.2-7.1-1.5-22.5-1.5h-19.6l.3 10.7zM365.2 287c-6.8 21-13.1 42.7-12.8 43.7.7 1.7 25.6 1.9 27.3.2 1-1-.4-6.2-11.1-40.4l-2.2-7-1.2 3.5zM550.7 279.7c-.4.3-.7 5.3-.7 11V301h42.2l2.9-2.9c5.8-5.8 3.1-15.8-4.9-18.1-4-1.1-38.5-1.4-39.5-.3z"/></svg>